<svg xmlns="http://www.w3.org/2000/svg" viewBox="0 0 128 128">
  <defs><linearGradient id="bg" x1="18" y1="8" x2="108" y2="124"><stop stop-color="#E5F2FF"/><stop offset="1" stop-color="#A6C9E7"/></linearGradient><linearGradient id="vest" x1="64" y1="88" x2="64" y2="128"><stop stop-color="#F1A436"/><stop offset="1" stop-color="#D5761D"/></linearGradient></defs>
  <g id="background"><circle cx="64" cy="64" r="64" fill="url(#bg)"/><circle cx="23" cy="31" r="13" fill="#fff" opacity=".18"/><ellipse cx="64" cy="117" rx="39" ry="7" fill="#20374A" opacity=".12"/></g>
  <g id="technician" stroke="#263A36" stroke-width="3" stroke-linejoin="round"><path d="M24 128c3-26 18-40 40-40s37 14 40 40" fill="url(#vest)"/><path d="M41 96v32M87 96v32" stroke="#FFF2AD" stroke-width="6"/><path d="M38 57c0-22 10-35 26-35s26 13 26 35v15c0 18-11 29-26 29S38 90 38 72z" fill="#C9855C"/><path d="M38 55c1-22 11-34 26-34 17 0 26 13 26 35-13-2-28-9-36-18-4 8-9 13-16 17z" fill="#30443D"/><path d="M40 48c3-18 11-27 24-27s22 9 25 27" fill="#287DB8"/><path d="M35 48h58v10H35z" fill="#1A5B91"/><path d="M50 25v21M78 25v21" stroke="#8EC6EB" stroke-width="4"/><g id="safety-glasses" fill="#BDEAFF" fill-opacity=".72"><path d="M42 59h21v15H48c-5 0-7-4-6-15z"/><path d="M65 59h21c1 11-1 15-6 15H65z"/></g><path d="M63 65h2M43 60l-7-3M85 60l7-3" fill="none"/><circle cx="53" cy="66" r="2" fill="#263A36" stroke="none"/><circle cx="75" cy="66" r="2" fill="#263A36" stroke="none"/><path d="M54 84c6 4 14 4 20 0" fill="none" stroke-linecap="round"/><path d="M54 96h20v14H54z" fill="#F8FAFC"/></g>
</svg>
