<svg xmlns="http://www.w3.org/2000/svg" viewBox="0 0 128 128">
  <defs><linearGradient id="bg" x1="12" y1="8" x2="115" y2="122"><stop stop-color="#E4F2FF"/><stop offset="1" stop-color="#9FC8E5"/></linearGradient><linearGradient id="metal" x1="64" y1="29" x2="64" y2="101"><stop stop-color="#F9FCFB"/><stop offset="1" stop-color="#B9CBC6"/></linearGradient></defs>
  <g id="background"><circle cx="64" cy="64" r="64" fill="url(#bg)"/><circle cx="23" cy="28" r="11" fill="#fff" opacity=".24"/><ellipse cx="64" cy="113" rx="40" ry="8" fill="#1D3444" opacity=".13"/></g>
  <g id="robot" stroke="#263A36" stroke-width="3" stroke-linejoin="round"><path d="M42 34h44l10 12v34c0 14-12 24-32 24S32 94 32 80V46z" fill="url(#metal)"/><path d="M42 34c2-10 9-16 22-16s20 6 22 16" fill="#DCE7E4"/><path d="M64 18V8" fill="none" stroke-linecap="round"/><circle cx="64" cy="7" r="5" fill="#F4C52E"/><rect x="40" y="51" width="48" height="32" rx="14" fill="#263A36"/><circle cx="53" cy="66" r="7" fill="#54B9E8" stroke="none"/><circle cx="75" cy="66" r="7" fill="#54B9E8" stroke="none"/><circle cx="51" cy="63" r="2" fill="#fff" stroke="none"/><circle cx="73" cy="63" r="2" fill="#fff" stroke="none"/><path d="M53 90c7 5 15 5 22 0" fill="none" stroke-linecap="round"/><path d="M31 55H18v25h14M96 55h14v25H96" fill="#79928B"/><path d="M28 102 17 128h94l-11-26-18-5c-10 9-26 9-36 0z" fill="#287DB8"/><path d="M53 110h22v18H53z" fill="#174B77"/><circle cx="64" cy="117" r="4" fill="#F4C52E" stroke="none"/></g>
</svg>
