<svg xmlns="http://www.w3.org/2000/svg" viewBox="0 0 128 128">
  <defs><linearGradient id="bg" x1="8" y1="10" x2="118" y2="120"><stop stop-color="#DBF4EF"/><stop offset="1" stop-color="#86C9BE"/></linearGradient><linearGradient id="shirt" x1="61" y1="87" x2="61" y2="128"><stop stop-color="#177E72"/><stop offset="1" stop-color="#0B504A"/></linearGradient></defs>
  <g id="background"><circle cx="64" cy="64" r="64" fill="url(#bg)"/><g id="circuit-symbol" fill="none" stroke="#fff" stroke-width="3" opacity=".42"><path d="M91 20h10v10h9v10"/><circle cx="91" cy="20" r="3" fill="#fff"/><circle cx="110" cy="40" r="3" fill="#fff"/></g><ellipse cx="62" cy="117" rx="40" ry="7" fill="#173E39" opacity=".12"/></g>
  <g id="specialist" stroke="#263A36" stroke-width="3" stroke-linejoin="round"><path d="M19 128c3-27 19-42 41-42s37 15 40 42" fill="url(#shirt)"/><path d="M36 55c0-22 11-34 27-34s27 12 27 34v17c0 18-12 29-27 29S36 90 36 72z" fill="#E3A176"/><path d="M36 57c-1-24 10-38 27-38 18 0 29 15 27 39-15-5-27-13-35-23-3 10-10 17-19 22z" fill="#263A36"/><circle cx="52" cy="67" r="2.5" fill="#263A36" stroke="none"/><circle cx="75" cy="67" r="2.5" fill="#263A36" stroke="none"/><path d="M54 82c6 4 14 4 20 0" fill="none" stroke-linecap="round"/><path d="M76 91c12 3 21 13 25 37H70z" fill="#115D57"/><g id="tablet"><rect x="68" y="84" width="39" height="34" rx="5" fill="#354B49"/><rect x="73" y="89" width="29" height="21" rx="2" fill="#C9F5E8"/><path d="m79 103 6-6 5 4 6-7" fill="none" stroke="#199A67" stroke-width="2.5"/><circle cx="87.5" cy="114" r="1.5" fill="#DCE7E3" stroke="none"/></g><path d="M48 94 61 107 73 94" fill="#F8FAFC"/></g>
</svg>
