<svg xmlns="http://www.w3.org/2000/svg" viewBox="0 0 128 128">
  <defs><linearGradient id="bg" x1="13" y1="7" x2="115" y2="123"><stop stop-color="#E1F7EB"/><stop offset="1" stop-color="#92CEB0"/></linearGradient><linearGradient id="cabinet" x1="64" y1="22" x2="64" y2="107"><stop stop-color="#F8FBFA"/><stop offset="1" stop-color="#CBD9D5"/></linearGradient></defs>
  <g id="background"><circle cx="64" cy="64" r="64" fill="url(#bg)"/><path d="M9 92c32-12 73-10 114 8v28H0V98z" fill="#fff" opacity=".12"/><path d="M16 40h8v-9h9M105 104v-9h9" fill="none" stroke="#fff" stroke-width="2.5" opacity=".32"/><ellipse cx="64" cy="111" rx="37" ry="7" fill="#153A2C" opacity=".13"/></g>
  <g id="electrical-panel" stroke="#263A36" stroke-width="3" stroke-linejoin="round"><rect x="29" y="18" width="70" height="92" rx="9" fill="url(#cabinet)"/><path d="M29 40h70"/><circle cx="43" cy="29" r="5" fill="#E95A48"/><circle cx="58" cy="29" r="5" fill="#F4C52E"/><circle cx="73" cy="29" r="5" fill="#22A96B"/><path d="M89 25v8" stroke-linecap="round"/><rect x="39" y="51" width="50" height="44" rx="6" fill="#AFC3BE"/><g id="breakers"><rect x="46" y="58" width="15" height="14" rx="3" fill="#F8FAF9"/><rect x="67" y="58" width="15" height="14" rx="3" fill="#F8FAF9"/><path d="M50 62h7M71 62h7" stroke="#168C5A"/><rect x="46" y="78" width="36" height="10" rx="3" fill="#425B55"/></g><path d="m96 68 14 8-14 8z" fill="#F4A340"/><circle cx="89" cy="103" r="2" fill="#263A36" stroke="none"/></g>
</svg>
