<svg xmlns="http://www.w3.org/2000/svg" viewBox="0 0 128 128">
  <defs><linearGradient id="bg" x1="18" y1="12" x2="110" y2="120" gradientUnits="userSpaceOnUse"><stop stop-color="#DDF7E7"/><stop offset="1" stop-color="#9EDBC1"/></linearGradient><linearGradient id="shirt" x1="64" y1="86" x2="64" y2="128" gradientUnits="userSpaceOnUse"><stop stop-color="#287DB8"/><stop offset="1" stop-color="#174B77"/></linearGradient></defs>
  <g id="background"><circle cx="64" cy="64" r="64" fill="url(#bg)"/><circle cx="99" cy="27" r="16" fill="#fff" opacity=".2"/><ellipse cx="64" cy="117" rx="39" ry="7" fill="#17362D" opacity=".12"/></g>
  <g id="electrician" stroke="#263A36" stroke-width="3" stroke-linejoin="round"><path d="M25 128c2-25 17-40 39-40s37 15 39 40" fill="url(#shirt)"/><path d="m48 93 16 16 16-16 5 35H43z" fill="#F7FAF9"/><path d="m64 109-6 19h12z" fill="#F4A340" stroke="none"/><path d="M39 55c0-21 10-33 25-33s25 12 25 33v15c0 18-11 29-25 29S39 88 39 70z" fill="#D99B73"/><path d="M38 57c4-8 8-12 13-15 10 7 24 9 38 8v-2c0-18-11-29-25-29S39 29 38 57z" fill="#344641"/><path d="M40 50c2-19 11-29 24-29s23 10 25 29" fill="#F5C928"/><path d="M34 50h60v11H34z" fill="#E7B718"/><path d="M50 25v23M78 25v23" stroke="#FFF1A8" stroke-width="4"/><circle cx="53" cy="68" r="2.5" fill="#263A36" stroke="none"/><circle cx="75" cy="68" r="2.5" fill="#263A36" stroke="none"/><path d="M54 82c6 4 14 4 20 0" fill="none" stroke-linecap="round"/></g>
</svg>
