<svg xmlns="http://www.w3.org/2000/svg" viewBox="0 0 128 128">
  <defs><linearGradient id="bg" x1="10" y1="8" x2="117" y2="120"><stop stop-color="#E4EEFF"/><stop offset="1" stop-color="#9BB9DD"/></linearGradient><linearGradient id="body" x1="56" y1="40" x2="57" y2="93"><stop stop-color="#7997AD"/><stop offset="1" stop-color="#405E73"/></linearGradient></defs>
  <g id="background"><circle cx="64" cy="64" r="64" fill="url(#bg)"/><circle cx="101" cy="26" r="15" fill="#fff" opacity=".18"/><path d="M17 39c17-17 43-25 68-18M111 91c-15 17-40 25-64 21" fill="none" stroke="#fff" stroke-width="2" opacity=".25"/><ellipse cx="64" cy="105" rx="43" ry="8" fill="#193346" opacity=".14"/></g>
  <g id="motor" stroke="#263A36" stroke-width="3" stroke-linejoin="round"><path d="M26 93h76l8 14H18z" fill="#344F61"/><path d="M32 43h58c8 0 14 6 14 14v23c0 8-6 14-14 14H32z" fill="url(#body)"/><path d="M27 48h13v41H27c-5 0-8-4-8-9V57c0-5 3-9 8-9z" fill="#69869A"/><path d="M104 57h10v24h-10" fill="#DCE6EA"/><path d="M114 63h10v12h-10" fill="#536D7C"/><path d="M43 49v39M54 46v45M65 46v45M76 46v45M87 49v39" fill="none" stroke="#B6CAD4" stroke-width="5"/><circle cx="95" cy="69" r="11" fill="#169264"/><circle cx="95" cy="69" r="4" fill="#F4C52E" stroke="none"/><path d="M37 43V31h50v12" fill="#607E92"/><path d="M45 31v-8h34v8" fill="none"/><path d="M34 107v10M94 107v10" stroke-linecap="round"/></g>
</svg>
