<svg xmlns="http://www.w3.org/2000/svg" viewBox="0 0 128 128">
  <defs><linearGradient id="bg" x1="17" y1="8" x2="108" y2="121"><stop stop-color="#284C73"/><stop offset="1" stop-color="#142B43"/></linearGradient><linearGradient id="bolt" x1="47" y1="18" x2="78" y2="109"><stop stop-color="#FFF18A"/><stop offset="1" stop-color="#F2B827"/></linearGradient></defs>
  <g id="background"><circle cx="64" cy="64" r="64" fill="url(#bg)"/><circle cx="64" cy="63" r="46" fill="#4D7CA4" opacity=".35"/><circle cx="64" cy="63" r="36" fill="#79A5C7" opacity=".18"/><path d="M21 42h12M95 85h14M98 34l8-8M23 96l9-9" stroke="#B9D9EE" stroke-width="3" stroke-linecap="round" opacity=".55"/><ellipse cx="64" cy="111" rx="29" ry="6" fill="#081623" opacity=".2"/></g>
  <g id="premium-bolt"><path d="M70 14 37 70h24l-8 44 39-64H68z" fill="#263A36" opacity=".2" transform="translate(3 3)"/><path d="M70 14 37 70h24l-8 44 39-64H68z" fill="url(#bolt)" stroke="#263A36" stroke-width="3" stroke-linejoin="round"/><path d="M66 27 48 61h17" fill="none" stroke="#FFF9CE" stroke-width="4" stroke-linecap="round" opacity=".8"/></g>
</svg>
