<svg xmlns="http://www.w3.org/2000/svg" viewBox="0 0 128 128">
  <defs><linearGradient id="bg" x1="12" y1="8" x2="116" y2="122" gradientUnits="userSpaceOnUse"><stop stop-color="#E4F2FF"/><stop offset="1" stop-color="#A9CDEB"/></linearGradient><linearGradient id="jacket" x1="64" y1="88" x2="64" y2="128"><stop stop-color="#287CB9"/><stop offset="1" stop-color="#19517D"/></linearGradient></defs>
  <g id="background"><circle cx="64" cy="64" r="64" fill="url(#bg)"/><path d="M12 77c24-11 62-10 104 7v44H0V84z" fill="#fff" opacity=".14"/><g fill="none" stroke="#fff" stroke-width="2.5" opacity=".32"><path d="M96 18v10h10v11"/><circle cx="96" cy="18" r="2.5" fill="#fff"/><circle cx="106" cy="39" r="2.5" fill="#fff"/></g><ellipse cx="64" cy="117" rx="39" ry="7" fill="#18364A" opacity=".12"/></g>
  <g id="engineer" stroke="#263A36" stroke-width="3" stroke-linejoin="round"><path d="M24 128c3-26 18-40 40-40s37 14 40 40" fill="url(#jacket)"/><path d="M48 93 64 108 80 93l6 35H42z" fill="#F8FAFC"/><path d="M36 61c-3-22 8-40 28-40s31 18 28 40v15c0 17-12 28-28 28S36 93 36 76z" fill="#B87955"/><path d="M37 64c-3-29 10-45 27-45 18 0 31 17 28 45-9-9-14-20-15-30-8 15-21 23-40 30z" fill="#3D2F2B"/><path d="M39 48c3-18 12-27 25-27 14 0 23 9 26 27" fill="#F7FAF9"/><path d="M34 48h60v11H34z" fill="#DDE5E7"/><path d="M50 25v21M78 25v21" stroke="#fff" stroke-width="4"/><circle cx="53" cy="69" r="2.5" fill="#263A36" stroke="none"/><circle cx="75" cy="69" r="2.5" fill="#263A36" stroke="none"/><path d="M54 83c6 4 14 4 20 0" fill="none" stroke-linecap="round"/><path d="m64 108-5 20h10z" fill="#F4A340" stroke="none"/></g>
</svg>
