<svg xmlns="http://www.w3.org/2000/svg" viewBox="0 0 128 128">
  <defs><linearGradient id="bg" x1="15" y1="5" x2="112" y2="124"><stop stop-color="#F7E9D9"/><stop offset="1" stop-color="#DAB693"/></linearGradient><linearGradient id="uniform" x1="64" y1="87" x2="64" y2="128"><stop stop-color="#52645F"/><stop offset="1" stop-color="#2C3C38"/></linearGradient></defs>
  <g id="background"><circle cx="64" cy="64" r="64" fill="url(#bg)"/><path d="M12 91c31-14 69-13 108 2v35H0V98z" fill="#fff" opacity=".12"/><ellipse cx="64" cy="118" rx="40" ry="6" fill="#3B2A20" opacity=".13"/></g>
  <g id="operator" stroke="#263A36" stroke-width="3" stroke-linejoin="round"><path d="M22 128c3-27 19-42 42-42s39 15 42 42" fill="url(#uniform)"/><path d="M39 59c0-23 10-36 25-36s25 13 25 36v13c0 18-11 29-25 29S39 90 39 72z" fill="#9F6548"/><path d="M39 57c2-23 11-35 25-35 15 0 24 12 25 35-13-4-23-11-29-20-5 9-12 16-21 20z" fill="#292E2E"/><path d="M38 48c4-18 13-27 26-27 14 0 23 9 27 27" fill="#EE8D31"/><path d="M34 48h60v10H34z" fill="#D66B20"/><circle cx="53" cy="68" r="2.5" fill="#263A36" stroke="none"/><circle cx="75" cy="68" r="2.5" fill="#263A36" stroke="none"/><path d="M55 82c6 3 12 3 18 0" fill="none" stroke-linecap="round"/><path d="m47 93 17 15 17-15M64 108v20" fill="none" stroke="#D9E4E0"/><rect x="78" y="106" width="15" height="10" rx="2" fill="#F4A340"/><circle cx="64" cy="116" r="2" fill="#BBD3CE" stroke="none"/></g>
</svg>
