<svg xmlns="http://www.w3.org/2000/svg" viewBox="0 0 128 128">
  <defs><linearGradient id="bg" x1="10" y1="8" x2="118" y2="122"><stop stop-color="#E5F3FF"/><stop offset="1" stop-color="#9CC7E4"/></linearGradient><linearGradient id="gear" x1="64" y1="22" x2="64" y2="107"><stop stop-color="#527287"/><stop offset="1" stop-color="#2C4859"/></linearGradient></defs>
  <g id="background"><circle cx="64" cy="64" r="64" fill="url(#bg)"/><circle cx="24" cy="29" r="13" fill="#fff" opacity=".2"/><ellipse cx="64" cy="111" rx="39" ry="7" fill="#183747" opacity=".12"/></g>
  <g id="gear-circuit" stroke="#263A36" stroke-width="3" stroke-linejoin="round"><path d="m64 16 9 11 14-3 5 13 14 6-3 14 10 10-10 10 3 14-14 6-5 13-14-3-9 11-9-11-14 3-5-13-14-6 3-14-10-10 10-10-3-14 14-6 5-13 14 3z" fill="url(#gear)"/><circle cx="64" cy="67" r="30" fill="#EAF6F2"/><circle cx="64" cy="67" r="13" fill="#43B987"/><g id="circuit" fill="none" stroke="#168C5A" stroke-width="3" stroke-linecap="round"><path d="M64 54V42h12v-7M64 80v12H51v7M51 67H39v-9h-7M77 67h12v10h7"/><circle cx="76" cy="35" r="3" fill="#F4A340"/><circle cx="51" cy="99" r="3" fill="#F4A340"/><circle cx="32" cy="58" r="3" fill="#F4A340"/><circle cx="96" cy="77" r="3" fill="#F4A340"/></g><circle cx="64" cy="67" r="5" fill="#F8FAF9"/></g>
</svg>
